<svg version="1.1" xmlns="http://www.w3.org/2000/svg" xmlns:xlink="http://www.w3.org/1999/xlink" viewBox="0 0 172 172"><g fill="none" fill-rule="nonzero" stroke="none" stroke-width="1" stroke-linecap="butt" stroke-linejoin="miter" stroke-miterlimit="10" stroke-dasharray="" stroke-dashoffset="0" font-family="none" font-weight="none" font-size="none" text-anchor="none" style="mix-blend-mode: normal"><path d="M0,172v-172h172v172z" fill="none"></path><g><path d="M151.9706,96.31312c0.51428,-1.05608 0.96836,-2.16548 1.36224,-3.3282c4.50984,-13.31108 -2.30996,-29.25376 -16.67196,-33.1014c-1.55316,-19.50136 -15.2564,-32.8778 -30.73124,-35.16024c-17.71256,-2.61268 -33.94076,8.63956 -39.33984,26.52584c-6.50848,-2.3048 -12.85012,-2.02444 -18.8254,1.46716c-2.71072,1.25388 -5.19096,3.1046 -7.41664,5.5384c-3.268,3.57244 -5.39048,8.084 -6.25564,12.8398c-1.2814,0.20124 -2.54044,0.4042 -3.72724,0.82904c-6.91956,2.48196 -11.28664,7.59036 -12.48376,15.28392c-0.74648,4.7902 0.75852,9.57008 1.59788,11.50164c3.31444,7.62992 11.00112,11.95744 18.80992,10.81192c0.38872,-0.05676 0.95288,0.11868 1.28828,0.39904c0.4128,12.19652 6.33476,22.98264 15.21856,29.14368c14.25364,9.88656 32.59228,6.84044 44.161,-6.7166c4.95704,5.07056 10.85664,7.5336 17.78824,6.6392c6.89032,-0.88924 12.24124,-4.69216 16.14564,-10.87384c1.80256,0.48504 3.51396,1.18508 5.28212,1.37772c6.923,0.7568 12.54568,-1.99692 16.67024,-8.2216c1.57896,-2.3822 3.07192,-5.47132 3.07192,-10.88416c0,-5.5814 -2.21536,-10.664 -5.94432,-14.07132z" fill="#ffffff"></path><path d="M131.59548,84.95768c0,0 20.02596,0 20.14808,0c4.62508,0 8.37296,-3.7496 8.37296,-8.37468c0,-4.03512 -2.85348,-7.40116 -6.65296,-8.1958c0.043,-0.3526 0.07396,-0.71036 0.07396,-1.075c0,-4.7902 -3.88204,-8.67224 -8.67224,-8.67224c-2.82768,0 -5.332,1.36052 -6.9144,3.45376c-0.4042,-5.332 -5.16688,-9.44452 -10.73968,-8.7634c-4.07468,0.4988 -7.44416,3.64812 -8.19408,7.68324c-0.2408,1.29344 -0.215,2.55076 0.02408,3.72896c-1.0922,-1.17648 -2.64708,-1.9178 -4.37912,-1.9178c-3.16996,0 -5.75684,2.4682 -5.96152,5.58656c-1.43964,-0.3182 -3.00484,-0.29756 -4.65432,0.32164c-3.15104,1.18336 -5.39564,4.15036 -5.52808,7.51468c-0.18576,4.77816 3.63092,8.71008 8.36608,8.71008c0.35948,0 1.62368,0 1.91608,0h17.38748" fill="#fdfcef"></path><path d="M151.74356,85.81768h-20.14808c-0.47472,0 -0.86,-0.38528 -0.86,-0.86c0,-0.47472 0.38528,-0.86 0.86,-0.86h20.14808c4.14348,0 7.51296,-3.3712 7.51296,-7.51468c0,-3.53804 -2.50948,-6.6306 -5.9684,-7.353c-0.4386,-0.09116 -0.73272,-0.50224 -0.67768,-0.94772c0.03956,-0.3182 0.06708,-0.64156 0.06708,-0.97008c0,-4.3086 -3.50536,-7.81224 -7.81224,-7.81224c-2.46304,0 -4.73344,1.1352 -6.22984,3.1132c-0.215,0.28724 -0.57964,0.4128 -0.9288,0.30616c-0.34228,-0.10148 -0.58824,-0.40248 -0.61404,-0.75852c-0.17888,-2.35984 -1.333,-4.57348 -3.16824,-6.07676c-1.85416,-1.51876 -4.20024,-2.19472 -6.60996,-1.89888c-3.70832,0.45408 -6.77336,3.32648 -7.45276,6.98664c-0.21328,1.1438 -0.20468,2.28932 0.02064,3.40216c0.0774,0.37668 -0.10664,0.76024 -0.44892,0.93568c-0.34228,0.17544 -0.76196,0.1032 -1.0234,-0.17888c-0.98384,-1.05952 -2.31512,-1.6426 -3.7496,-1.6426c-2.68664,0 -4.92608,2.10012 -5.10152,4.7816c-0.0172,0.25112 -0.14104,0.4816 -0.34228,0.63124c-0.20124,0.14964 -0.45924,0.20468 -0.70176,0.15136c-1.43964,-0.3182 -2.80188,-0.22532 -4.16584,0.28724c-2.85692,1.07156 -4.85384,3.78228 -4.9708,6.7424c-0.08084,2.06744 0.6622,4.0248 2.09152,5.51088c1.43104,1.48608 3.354,2.3048 5.41456,2.3048h19.30356c0.47472,0 0.86,0.38528 0.86,0.86c0,0.47472 -0.38528,0.86 -0.86,0.86h-19.30356c-2.53528,0 -4.89856,-1.0062 -6.65468,-2.83284c-1.75612,-1.82664 -2.66944,-4.2312 -2.5714,-6.76992c0.14276,-3.64296 2.58688,-6.97288 6.08364,-8.28524c1.37084,-0.51428 2.78812,-0.688 4.22604,-0.51256c0.64672,-3.1218 3.4228,-5.44896 6.6908,-5.44896c1.17132,0 2.31684,0.30616 3.32648,0.87032c0,-0.65704 0.0602,-1.31924 0.18232,-1.97972c0.817,-4.39116 4.49092,-7.83632 8.9354,-8.37984c2.87412,-0.35776 5.68804,0.4558 7.90856,2.27556c1.71828,1.40868 2.93776,3.33852 3.4916,5.46616c1.73376,-1.56692 3.97148,-2.43724 6.35884,-2.43724c5.25632,0 9.53224,4.27592 9.53224,9.53224c0,0.14276 -0.00344,0.2838 -0.01204,0.42312c3.8614,1.1524 6.59104,4.75924 6.59104,8.84768c0.00344,5.08948 -4.13832,9.23124 -9.22952,9.23124z" fill="#472b29"></path><path d="M126.74164,66.51068c-3.09772,-0.20296 -5.76372,1.93672 -5.95464,4.77816c-0.02408,0.3526 -0.0086,0.70004 0.043,1.03888c-0.59684,-0.67424 -1.48264,-1.13348 -2.49744,-1.19884c-1.8576,-0.12212 -3.46236,1.10596 -3.69628,2.77436c-0.33884,-0.09288 -0.68972,-0.1548 -1.05608,-0.17888c-2.71072,-0.17716 -5.04304,1.6942 -5.20988,4.18132" fill="#fdfcef"></path><path d="M108.37204,78.33396c-0.01032,0 -0.02064,0 -0.02924,0c-0.23736,-0.01548 -0.41624,-0.22016 -0.40076,-0.45752c0.18232,-2.72104 2.70384,-4.78848 5.6674,-4.58208c0.23048,0.01548 0.4644,0.04644 0.69832,0.09116c0.46956,-1.65636 2.1758,-2.79328 4.05232,-2.68664c0.72756,0.04816 1.4104,0.27348 1.99176,0.6536c0.00172,-0.03096 0.00344,-0.06192 0.00516,-0.09288c0.2064,-3.07364 3.07192,-5.38704 6.41216,-5.17892c0.23736,0.01548 0.41624,0.22016 0.40076,0.45752c-0.01548,0.23564 -0.20468,0.41108 -0.45752,0.40076c-2.86724,-0.20296 -5.3234,1.77676 -5.49712,4.3774c-0.02064,0.31476 -0.00688,0.63296 0.03956,0.946c0.02924,0.1892 -0.07052,0.37324 -0.24252,0.45408c-0.172,0.07912 -0.37668,0.03784 -0.50396,-0.10492c-0.55212,-0.62264 -1.33472,-0.99932 -2.20332,-1.05436c-1.6082,-0.10664 -3.03924,0.94944 -3.2422,2.40456c-0.0172,0.12212 -0.086,0.23048 -0.1892,0.29928c-0.1032,0.0688 -0.2322,0.08772 -0.34916,0.05676c-0.32508,-0.08772 -0.6536,-0.14276 -0.9718,-0.16512c-2.4424,-0.16512 -4.601,1.53424 -4.75236,3.78056c-0.01548,0.22704 -0.20468,0.40076 -0.42828,0.40076z" fill="#472b29"></path><path d="M155.13368,69.36932c-2.91024,-1.37256 -6.27628,-0.40076 -7.51812,2.17064c-0.1548,0.31992 -0.26832,0.64844 -0.344,0.98212" fill="#fdfcef"></path><path d="M147.27156,72.95208c-0.03096,0 -0.06364,-0.00344 -0.09632,-0.01032c-0.2322,-0.05332 -0.37668,-0.2838 -0.32336,-0.51428c0.08428,-0.37152 0.21156,-0.73272 0.37668,-1.075c1.3416,-2.7778 4.96908,-3.83904 8.08916,-2.37016c0.215,0.10148 0.30788,0.35776 0.2064,0.57276c-0.09976,0.215 -0.35776,0.30444 -0.57276,0.2064c-2.69352,-1.27108 -5.81016,-0.387 -6.9488,1.96768c-0.13588,0.28208 -0.24252,0.58136 -0.31304,0.89096c-0.04472,0.1978 -0.22188,0.33196 -0.41796,0.33196z" fill="#472b29"></path><path d="M31.48976,82.67352h-17.18108c-0.47472,0 -0.86,-0.38528 -0.86,-0.86c0,-0.47472 0.38528,-0.86 0.86,-0.86h17.18108c0.47472,0 0.86,0.38528 0.86,0.86c0,0.47472 -0.38356,0.86 -0.86,0.86zM36.42616,82.67352h-2.47508c-0.47472,0 -0.86,-0.38528 -0.86,-0.86c0,-0.47472 0.38528,-0.86 0.86,-0.86h2.47508c0.47472,0 0.86,0.38528 0.86,0.86c0,0.47472 -0.38528,0.86 -0.86,0.86zM43.37152,82.67352h-4.36192c-0.47472,0 -0.86,-0.38528 -0.86,-0.86c0,-0.47472 0.38528,-0.86 0.86,-0.86h4.36192c0.47472,0 0.86,0.38528 0.86,0.86c0,0.47472 -0.38528,0.86 -0.86,0.86zM43.37152,85.86756h-16.47244c-0.47472,0 -0.86,-0.38528 -0.86,-0.86c0,-0.47472 0.38528,-0.86 0.86,-0.86h16.47244c0.47472,0 0.86,0.38528 0.86,0.86c0,0.47472 -0.38528,0.86 -0.86,0.86zM23.93208,85.86756h-0.99416c-0.47472,0 -0.86,-0.38528 -0.86,-0.86c0,-0.47472 0.38528,-0.86 0.86,-0.86h0.99416c0.47472,0 0.86,0.38528 0.86,0.86c0,0.47472 -0.38356,0.86 -0.86,0.86zM19.86084,85.86756h-2.494c-0.47472,0 -0.86,-0.38528 -0.86,-0.86c0,-0.47472 0.38528,-0.86 0.86,-0.86h2.494c0.47472,0 0.86,0.38528 0.86,0.86c0,0.47472 -0.38356,0.86 -0.86,0.86zM35.51112,79.47948h-8.61204c-0.47472,0 -0.86,-0.38528 -0.86,-0.86c0,-0.47472 0.38528,-0.86 0.86,-0.86h8.61204c0.47472,0 0.86,0.38528 0.86,0.86c0,0.47472 -0.38528,0.86 -0.86,0.86zM35.51112,76.28372h-2.15344c-0.47472,0 -0.86,-0.38528 -0.86,-0.86c0,-0.47472 0.38528,-0.86 0.86,-0.86h2.15344c0.47472,0 0.86,0.38528 0.86,0.86c0,0.47472 -0.38528,0.86 -0.86,0.86zM29.9108,89.06332h-3.01172c-0.47472,0 -0.86,-0.38528 -0.86,-0.86c0,-0.47472 0.38528,-0.86 0.86,-0.86h3.01172c0.47472,0 0.86,0.38528 0.86,0.86c0,0.47472 -0.38356,0.86 -0.86,0.86z" fill="#ffffff"></path><g fill="#ffffff"><path d="M122.58096,37.66284h-17.18108c-0.47472,0 -0.86,-0.38528 -0.86,-0.86c0,-0.47472 0.38528,-0.86 0.86,-0.86h17.18108c0.47472,0 0.86,0.38528 0.86,0.86c0,0.47472 -0.38356,0.86 -0.86,0.86zM127.51564,37.66284h-2.4768c-0.47472,0 -0.86,-0.38528 -0.86,-0.86c0,-0.47472 0.38528,-0.86 0.86,-0.86h2.4768c0.47472,0 0.86,0.38528 0.86,0.86c0,0.47472 -0.38356,0.86 -0.86,0.86zM134.46272,37.66284h-4.36192c-0.47472,0 -0.86,-0.38528 -0.86,-0.86c0,-0.47472 0.38528,-0.86 0.86,-0.86h4.36192c0.47472,0 0.86,0.38528 0.86,0.86c0,0.47472 -0.38528,0.86 -0.86,0.86zM130.99176,31.27476h-16.47244c-0.47472,0 -0.86,-0.38528 -0.86,-0.86c0,-0.47472 0.38528,-0.86 0.86,-0.86h16.47244c0.47472,0 0.86,0.38528 0.86,0.86c0,0.47472 -0.38528,0.86 -0.86,0.86zM111.55404,31.27476h-0.99416c-0.47472,0 -0.86,-0.38528 -0.86,-0.86c0,-0.47472 0.38528,-0.86 0.86,-0.86h0.99416c0.47472,0 0.86,0.38528 0.86,0.86c0,0.47472 -0.38528,0.86 -0.86,0.86zM107.4828,31.27476h-2.494c-0.47472,0 -0.86,-0.38528 -0.86,-0.86c0,-0.47472 0.38528,-0.86 0.86,-0.86h2.494c0.47472,0 0.86,0.38528 0.86,0.86c0,0.47472 -0.38528,0.86 -0.86,0.86zM126.6006,34.4688h-8.61204c-0.47472,0 -0.86,-0.38528 -0.86,-0.86c0,-0.47472 0.38528,-0.86 0.86,-0.86h8.61204c0.47472,0 0.86,0.38528 0.86,0.86c0,0.47472 -0.38356,0.86 -0.86,0.86z"></path><path d="M126.6006,31.27476h-2.15344c-0.47472,0 -0.86,-0.38528 -0.86,-0.86c0,-0.47472 0.38528,-0.86 0.86,-0.86h2.15344c0.47472,0 0.86,0.38528 0.86,0.86c0,0.47472 -0.38356,0.86 -0.86,0.86zM115.49628,34.4688h-3.01172c-0.47472,0 -0.86,-0.38528 -0.86,-0.86c0,-0.47472 0.38528,-0.86 0.86,-0.86h3.01172c0.47472,0 0.86,0.38528 0.86,0.86c0,0.47472 -0.38356,0.86 -0.86,0.86z"></path></g><g><path d="M114.42816,125.3794h-50.8002c-6.47752,0 -11.77684,-5.29932 -11.77684,-11.77684v-50.8002c0,-6.47752 5.29932,-11.77684 11.77684,-11.77684h50.8002c6.47752,0 11.77684,5.29932 11.77684,11.77684v50.8002c0,6.47752 -5.29932,11.77684 -11.77684,11.77684z" fill="#34495e"></path><path d="M114.42816,126.58512h-50.80192c-7.15864,0 -12.98084,-5.82392 -12.98084,-12.98084v-50.80192c0,-7.15864 5.82392,-12.98084 12.98084,-12.98084h50.8002c7.15864,0 12.98084,5.82392 12.98084,12.98084v50.8002c0.00172,7.15864 -5.8222,12.98256 -12.97912,12.98256zM63.62624,52.22952c-5.8308,0 -10.57284,4.74204 -10.57284,10.57284v50.8002c0,5.8308 4.74204,10.57284 10.57284,10.57284h50.8002c5.8308,0 10.57284,-4.74204 10.57284,-10.57284v-50.8002c0,-5.8308 -4.74204,-10.57284 -10.57284,-10.57284z" fill="#472b29"></path><path d="M111.34936,120.06976h-44.64432c-5.24944,0 -9.54428,-4.29484 -9.54428,-9.54428v-44.64432c0,-5.24944 4.29484,-9.54428 9.54428,-9.54428h44.64432c5.24944,0 9.54428,4.29484 9.54428,9.54428v44.64432c0,5.24944 -4.29484,9.54428 -9.54428,9.54428z" fill="#fdfcee"></path><path d="M111.21004,120.67176h-44.36396c-5.67256,0 -10.28732,-4.61476 -10.28732,-10.28732v-44.36224c0,-5.67256 4.61476,-10.28732 10.28732,-10.28732h42.24492c0.33196,0 0.602,0.27004 0.602,0.602c0,0.33196 -0.27004,0.602 -0.602,0.602h-42.24492c-5.00864,0 -9.08332,4.07468 -9.08332,9.08332v44.36224c0,5.00864 4.07468,9.08332 9.08332,9.08332h44.36224c5.00864,0 9.0816,-4.07468 9.0816,-9.08332v-24.54268c0,-0.33196 0.27004,-0.602 0.602,-0.602c0.33196,0 0.602,0.27004 0.602,0.602v24.54268c0.00172,5.67256 -4.61304,10.28732 -10.28388,10.28732zM120.89364,82.904c-0.33196,0 -0.602,-0.27004 -0.602,-0.602v-4.7214c0,-0.33196 0.27004,-0.602 0.602,-0.602c0.33196,0 0.602,0.27004 0.602,0.602v4.7214c0,0.33196 -0.27004,0.602 -0.602,0.602zM120.89364,75.82104c-0.33196,0 -0.602,-0.27004 -0.602,-0.602v-2.35984c0,-0.33196 0.27004,-0.602 0.602,-0.602c0.33196,0 0.602,0.27004 0.602,0.602v2.35984c0,0.33368 -0.27004,0.602 -0.602,0.602z" fill="#472b29"></path><path d="M100.15732,68.48524h-24.03012v38.82384h24.03012c4.3516,0 6.07848,-3.76852 6.07848,-7.04856v-26.58776c-0.00172,-3.28004 -1.72688,-5.18752 -6.07848,-5.18752z" fill="#f1c40f"></path><path d="M100.15732,107.99708h-24.03012c-0.38012,0 -0.688,-0.30788 -0.688,-0.688v-38.82384c0,-0.38012 0.30788,-0.688 0.688,-0.688h24.03012c4.4892,0 6.76648,1.97628 6.76648,5.87552v26.58604c-0.00172,3.85108 -2.09324,7.73828 -6.76648,7.73828zM76.8152,106.62108h23.34212c4.25528,0 5.39048,-3.999 5.39048,-6.36056v-26.58776c0,-3.11148 -1.66324,-4.49952 -5.39048,-4.49952h-23.34212z" fill="#472b29"></path><path d="M76.71372,69.10788h4.945v37.51836h-4.945z" fill="#ce942b"></path><path d="M82.0698,101.68124c-0.23736,0 -0.43,-0.19264 -0.43,-0.43v-32.766c0,-0.23736 0.19264,-0.43 0.43,-0.43c0.23736,0 0.43,0.19264 0.43,0.43v32.766c0,0.23736 -0.19264,0.43 -0.43,0.43z" fill="#472b29"></path><path d="M98.70736,78.12584l-2.40972,-1.64776l-2.34436,1.64776v-9.245h4.75408z" fill="#ee3e54"></path><path d="M98.70736,78.55412c-0.08428,0 -0.17028,-0.0258 -0.24252,-0.07396l-2.16376,-1.47748l-2.10012,1.47404c-0.13244,0.0946 -0.30272,0.1032 -0.44548,0.02924c-0.14276,-0.07396 -0.2322,-0.22016 -0.2322,-0.38184v-9.24328c0,-0.23736 0.19264,-0.43 0.43,-0.43h4.75408c0.23736,0 0.43,0.19264 0.43,0.43v9.24328c0,0.15996 -0.08772,0.30616 -0.22876,0.38012c-0.06192,0.0344 -0.13072,0.04988 -0.20124,0.04988zM96.29764,76.04808c0.08428,0 0.17028,0.0258 0.24252,0.07396l1.7372,1.1868v-7.998h-3.89408v7.98596l1.66668,-1.17132c0.07568,-0.0516 0.16168,-0.0774 0.24768,-0.0774zM76.30264,71.65348c-0.08084,0 -0.15996,-0.04644 -0.19608,-0.12556c-0.04988,-0.10664 -0.00172,-0.23564 0.10664,-0.28552l5.59,-2.55592c0.1032,-0.04988 0.23564,-0.00344 0.28552,0.10664c0.04988,0.10664 0.00172,0.23564 -0.10664,0.28552l-5.59,2.55592c-0.02924,0.01204 -0.05848,0.01892 -0.08944,0.01892zM76.30264,73.7708c-0.08084,0 -0.15996,-0.04644 -0.19608,-0.12556c-0.04988,-0.10664 -0.00172,-0.23564 0.10664,-0.28552l5.59,-2.55592c0.1032,-0.0516 0.23564,-0.00344 0.28552,0.10664c0.04988,0.10664 0.00172,0.23564 -0.10664,0.28552l-5.59,2.55592c-0.02924,0.01376 -0.05848,0.01892 -0.08944,0.01892zM76.30264,75.88984c-0.08084,0 -0.15996,-0.04644 -0.19608,-0.12556c-0.04988,-0.10836 -0.00172,-0.23564 0.10664,-0.28552l5.59,-2.55764c0.1032,-0.0516 0.23564,-0.00344 0.28552,0.10664c0.04988,0.10664 0.00172,0.23564 -0.10664,0.28552l-5.59,2.55764c-0.02924,0.01376 -0.05848,0.01892 -0.08944,0.01892zM76.30264,78.00716c-0.08084,0 -0.15996,-0.04644 -0.19608,-0.12556c-0.04988,-0.10836 -0.00172,-0.23564 0.10664,-0.28552l5.59,-2.55764c0.1032,-0.04988 0.23564,-0.00344 0.28552,0.10664c0.04988,0.10664 0.00172,0.23564 -0.10664,0.28552l-5.59,2.55764c-0.02924,0.01376 -0.05848,0.01892 -0.08944,0.01892zM76.30264,80.1262c-0.08084,0 -0.15996,-0.04644 -0.19608,-0.12556c-0.04988,-0.10664 -0.00172,-0.23564 0.10664,-0.28552l5.59,-2.55592c0.1032,-0.04988 0.23564,-0.00344 0.28552,0.10664c0.04988,0.10664 0.00172,0.23564 -0.10664,0.28552l-5.59,2.55592c-0.02924,0.01204 -0.05848,0.01892 -0.08944,0.01892zM76.30264,82.24352c-0.08084,0 -0.15996,-0.04644 -0.19608,-0.12556c-0.04988,-0.10664 -0.00172,-0.23564 0.10664,-0.28552l5.59,-2.55592c0.1032,-0.0516 0.23564,-0.00344 0.28552,0.10664c0.04988,0.10664 0.00172,0.23564 -0.10664,0.28552l-5.59,2.55592c-0.02924,0.01376 -0.05848,0.01892 -0.08944,0.01892zM76.30264,84.36256c-0.08084,0 -0.15996,-0.04644 -0.19608,-0.12556c-0.04988,-0.10664 -0.00172,-0.23564 0.10664,-0.28552l5.59,-2.55592c0.1032,-0.04988 0.23564,-0.00172 0.28552,0.10664c0.04988,0.10664 0.00172,0.23564 -0.10664,0.28552l-5.59,2.55592c-0.02924,0.01204 -0.05848,0.01892 -0.08944,0.01892zM76.30264,86.47988c-0.08084,0 -0.15996,-0.04644 -0.19608,-0.12556c-0.04988,-0.10664 -0.00172,-0.23564 0.10664,-0.28552l5.59,-2.55592c0.1032,-0.04988 0.23564,-0.00344 0.28552,0.10664c0.04988,0.10664 0.00172,0.23564 -0.10664,0.28552l-5.59,2.55592c-0.02924,0.01376 -0.05848,0.01892 -0.08944,0.01892zM76.30264,88.59892c-0.08084,0 -0.15996,-0.04644 -0.19608,-0.12556c-0.04988,-0.10664 -0.00172,-0.23564 0.10664,-0.28552l4.31376,-1.97284c0.10492,-0.0516 0.23564,-0.00344 0.28552,0.10664c0.04988,0.10664 0.00172,0.23564 -0.10664,0.28552l-4.31376,1.97284c-0.02924,0.01204 -0.05848,0.01892 -0.08944,0.01892zM76.30264,90.71796c-0.08084,0 -0.15996,-0.04644 -0.19608,-0.12556c-0.04988,-0.10664 -0.00172,-0.23564 0.10664,-0.28552l2.60924,-1.19368c0.1032,-0.0516 0.23564,-0.00344 0.28552,0.10664c0.04988,0.10664 0.00172,0.23564 -0.10664,0.28552l-2.60924,1.19368c-0.02924,0.01204 -0.05848,0.01892 -0.08944,0.01892z" fill="#472b29"></path><g fill="#472b29"><path d="M82.0698,106.0896c-0.23736,0 -0.43,-0.19264 -0.43,-0.43v-2.22224c0,-0.23736 0.19264,-0.43 0.43,-0.43c0.23736,0 0.43,0.19264 0.43,0.43v2.22224c0,0.23736 -0.19264,0.43 -0.43,0.43z"></path></g></g><g><path d="M69.64968,130.11972c3.22672,0 6.02344,0 6.06472,0c3.61372,0 6.5446,-2.86724 6.5446,-6.40528c0,-3.08568 -2.23084,-5.66224 -5.19956,-6.2694c0.0344,-0.27004 0.05676,-0.54352 0.05676,-0.82216c0,-3.6636 -3.03408,-6.63404 -6.77852,-6.63404c-2.2102,0 -4.16756,1.0406 -5.40424,2.64192c-0.31648,-4.07812 -4.03856,-7.224 -8.3936,-6.70284c-3.18372,0.38184 -5.81876,2.78984 -6.40356,5.87724c-0.18748,0.99072 -0.16856,1.95048 0.01892,2.85348c-0.85312,-0.89956 -2.06916,-1.46716 -3.4228,-1.46716c-2.4768,0 -4.49952,1.88684 -4.65948,4.27248c-1.12488,-0.24424 -2.3478,-0.22704 -3.6378,0.24596c-2.46304,0.90472 -4.21744,3.17512 -4.32064,5.74824c-0.1462,3.655 2.838,6.66156 6.53944,6.66156c0.28036,0 1.26936,0 1.4964,0h13.58972M58.55396,130.11972h0.61576" fill="#fdfcef"></path><path d="M75.71268,130.97972h-6.06472c-0.47472,0 -0.86,-0.38528 -0.86,-0.86c0,-0.47472 0.38528,-0.86 0.86,-0.86h6.06472c3.13384,0 5.6846,-2.48712 5.6846,-5.54528c0,-2.60924 -1.89716,-4.89168 -4.51156,-5.4266c-0.44032,-0.08944 -0.73788,-0.50396 -0.68112,-0.95116c0.03096,-0.23564 0.0516,-0.47128 0.0516,-0.71552c0,-3.18372 -2.65396,-5.77404 -5.91852,-5.77404c-1.86964,0 -3.59136,0.84108 -4.72312,2.30824c-0.21844,0.28208 -0.5848,0.40076 -0.92708,0.29756c-0.34056,-0.10148 -0.58308,-0.40248 -0.6106,-0.7568c-0.13588,-1.74408 -0.96664,-3.32648 -2.34436,-4.45652c-1.41728,-1.16272 -3.225,-1.68388 -5.08948,-1.46028c-2.81908,0.33712 -5.14624,2.46992 -5.66224,5.18408c-0.16168,0.84624 -0.1548,1.6942 0.01548,2.51808c0.0774,0.37668 -0.1032,0.75852 -0.44376,0.93568c-0.34056,0.17888 -0.7568,0.11008 -1.0234,-0.17028c-0.73272,-0.77228 -1.72688,-1.19884 -2.79844,-1.19884c-2.00036,0 -3.67048,1.52392 -3.8012,3.47096c-0.0172,0.2494 -0.14104,0.47816 -0.34056,0.62952c-0.19952,0.14964 -0.45408,0.20468 -0.70004,0.15308c-1.09048,-0.23736 -2.12248,-0.16856 -3.15792,0.21156c-2.16032,0.79464 -3.67048,2.79328 -3.7582,4.97596c-0.0602,1.49812 0.48504,2.924 1.53252,4.01448c1.08704,1.13004 2.55936,1.7544 4.14864,1.7544h15.08612c0.47472,0 0.86,0.38528 0.86,0.86c0,0.47472 -0.38528,0.86 -0.86,0.86h-15.08612c-2.03132,0 -3.99556,-0.83076 -5.38876,-2.28244c-1.37428,-1.43104 -2.08808,-3.30412 -2.00896,-5.27524c0.11352,-2.86896 2.07604,-5.48852 4.88308,-6.52052c1.04576,-0.38356 2.1242,-0.5246 3.21984,-0.41968c0.59168,-2.3908 2.79328,-4.15208 5.37328,-4.15208c0.8428,0 1.67012,0.19264 2.41832,0.5504c0.01548,-0.41108 0.06364,-0.8256 0.14104,-1.2384c0.65188,-3.44344 3.59136,-6.14556 7.1466,-6.5704c2.3306,-0.27692 4.60272,0.37496 6.38636,1.83868c1.27968,1.0492 2.18784,2.41144 2.6488,3.9388c1.35536,-1.1094 3.05644,-1.72172 4.8676,-1.72172c4.21228,0 7.63852,3.3626 7.63852,7.49404c0,0.05848 0,0.11524 -0.00172,0.17372c3.02204,0.95116 5.14452,3.7496 5.14452,6.91784c-0.00516,4.00932 -3.32648,7.26872 -7.40976,7.26872zM59.16972,130.97972h-0.61576c-0.47472,0 -0.86,-0.38528 -0.86,-0.86c0,-0.47472 0.38528,-0.86 0.86,-0.86h0.61576c0.47472,0 0.86,0.38528 0.86,0.86c0,0.47472 -0.38528,0.86 -0.86,0.86z" fill="#472b29"></path><path d="M72.78868,121.03812c-0.03096,0 -0.06192,-0.00344 -0.0946,-0.01032c-0.2322,-0.0516 -0.37668,-0.28208 -0.32508,-0.51428c0.06364,-0.2838 0.16168,-0.56072 0.29068,-0.82216c1.03544,-2.0984 3.89752,-2.87068 6.37776,-1.72516c0.215,0.09976 0.3096,0.35604 0.20984,0.57104c-0.10148,0.215 -0.35432,0.30788 -0.57104,0.20984c-2.05884,-0.95288 -4.41352,-0.35948 -5.246,1.3244c-0.09804,0.19952 -0.17372,0.41108 -0.22188,0.62952c-0.04644,0.20124 -0.2236,0.33712 -0.41968,0.33712z" fill="#472b29"></path><g fill="#472b29"><path d="M63.95132,130.97972h-1.89716c-0.47472,0 -0.86,-0.38528 -0.86,-0.86c0,-0.47472 0.38528,-0.86 0.86,-0.86h1.89716c0.47472,0 0.86,0.38528 0.86,0.86c0,0.47472 -0.38528,0.86 -0.86,0.86z"></path></g></g></g></g></svg>